<?xml version="1.0" standalone="no"?>
<!DOCTYPE svg PUBLIC "-//W3C//DTD SVG 20010904//EN"
 "http://www.w3.org/TR/2001/REC-SVG-20010904/DTD/svg10.dtd">
<svg version="1.0" xmlns="http://www.w3.org/2000/svg"
 width="1120.000000pt" height="1120.000000pt" viewBox="0 0 1120.000000 1120.000000"
 preserveAspectRatio="xMidYMid meet">

<g transform="translate(0.000000,1120.000000) scale(0.100000,-0.100000)"
fill="#000000" stroke="none">
<path d="M3485 9631 c-56 -25 -102 -67 -128 -115 -22 -41 -22 -41 -27 -794
l-5 -752 -509 0 c-280 0 -511 1 -513 4 -2 2 -4 206 -3 453 l0 450 -49 -8
c-111 -17 -198 -88 -255 -208 l-31 -66 -3 -3209 c-2 -3487 -6 -3260 50 -3374
50 -105 196 -202 333 -222 48 -7 1116 -10 3325 -8 l3255 3 58 23 c91 37 175
107 213 177 69 127 64 -152 64 3315 0 3421 3 3210 -57 3323 -39 74 -145 177
-218 213 -51 24 -74 29 -160 32 l-101 4 1 -448 0 -449 -628 -5 -627 -5 2 740
3 740 37 18 c32 16 43 17 73 7 56 -19 65 -40 65 -162 l0 -107 101 -3 c55 -2
103 -1 105 1 2 2 4 61 4 131 0 116 -2 130 -26 178 -53 106 -139 146 -302 140
-109 -3 -164 -24 -215 -82 -65 -71 -62 -27 -67 -849 l-5 -747 -1850 0 -1850 0
0 730 0 729 22 22 c33 34 105 31 141 -5 26 -25 27 -33 30 -136 l4 -110 99 0
99 0 0 123 c0 108 -3 128 -24 174 -32 67 -85 116 -148 137 -72 23 -230 22
-283 -3z m-1338 -1373 c-2 -13 -4 -3 -4 22 0 25 2 35 4 23 2 -13 2 -33 0 -45z
m5281 -1155 c-10 -2 -28 -2 -40 0 -13 2 -5 4 17 4 22 1 32 -1 23 -4z m-5281
-405 c-2 -35 -3 -7 -3 62 0 69 1 97 3 63 2 -35 2 -91 0 -125z m6581 -2198 c2
-1922 1 -2139 -13 -2177 -29 -75 -69 -119 -142 -155 l-68 -33 -2983 -3 c-1960
-1 -2997 1 -3021 8 -96 26 -179 116 -200 218 -12 57 -17 4236 -5 4266 6 15
296 16 3218 14 l3211 -3 3 -2135z m-6463 2100 c-3 -5 -11 -10 -16 -10 -6 0 -7
5 -4 10 3 6 11 10 16 10 6 0 7 -4 4 -10z m-118 -4312 c-2 -24 -4 -7 -4 37 0
44 2 63 4 43 2 -21 2 -57 0 -80z"/>
<path d="M5736 6008 c-3 -18 -3 -322 0 -675 l7 -643 59 0 58 0 0 541 c0 466 2
540 14 530 20 -17 588 -700 766 -921 95 -118 150 -180 161 -180 5 0 9 302 9
685 l0 685 -59 0 c-48 0 -61 -3 -64 -17 -3 -10 -4 -242 -3 -515 0 -274 -2
-498 -5 -498 -4 0 -49 53 -100 117 -52 65 -128 158 -169 208 -294 351 -530
636 -558 673 -29 36 -39 42 -72 42 -34 0 -38 -3 -44 -32z"/>
<path d="M3078 6023 c-3 -5 -2 -306 0 -670 l4 -663 338 0 c376 0 350 -5 350
71 l0 39 -282 2 -283 3 -3 243 -2 242 172 1 c95 1 200 2 233 3 l60 1 3 58 3
57 -236 0 -235 0 0 250 0 250 278 2 277 3 3 58 3 57 -340 0 c-187 0 -341 -3
-343 -7z"/>
<path d="M3813 6013 c3 -10 41 -119 85 -243 69 -194 198 -561 344 -982 38
-108 56 -136 72 -109 3 5 68 193 145 417 76 225 178 519 226 654 47 135 89
253 92 263 5 16 -1 18 -68 15 l-73 -3 -83 -244 c-46 -135 -121 -361 -167 -503
-46 -142 -85 -261 -88 -263 -2 -3 -71 197 -152 443 -82 246 -158 475 -169 510
l-22 62 -74 0 c-65 0 -73 -2 -68 -17z"/>
<path d="M4900 5360 l0 -670 350 0 350 0 0 55 0 55 -285 0 -285 0 0 245 0 245
168 2 c159 2 252 5 280 7 8 1 12 19 12 56 l0 55 -230 0 -230 0 0 250 0 250
278 2 277 3 3 58 3 57 -346 0 -345 0 0 -670z"/>
<path d="M6952 5973 l3 -58 221 -3 221 -2 6 -233 c4 -127 7 -402 7 -610 l0
-378 63 3 62 3 3 607 2 608 213 2 212 3 3 58 3 57 -511 0 -511 0 3 -57z"/>
<path d="M3075 4390 c-3 -5 -3 -14 0 -20 4 -7 820 -10 2416 -10 2290 0 2410 1
2407 18 -3 16 -127 17 -2410 20 -1606 1 -2409 -1 -2413 -8z"/>
<path d="M5612 3573 l3 -668 60 0 60 0 5 499 5 499 155 -188 c85 -103 178
-216 205 -251 109 -135 505 -611 519 -623 10 -8 16 -9 21 -1 4 6 4 308 -1 671
l-7 659 -48 0 c-26 0 -53 -2 -61 -5 -11 -4 -12 -86 -10 -448 2 -243 2 -466 0
-496 l-3 -55 -141 170 c-77 93 -252 306 -389 474 -240 295 -349 421 -367 428
-4 2 -7 -297 -6 -665z"/>
<path d="M7334 4175 c-226 -49 -409 -210 -492 -433 -34 -92 -41 -239 -17 -346
54 -245 260 -451 500 -501 192 -40 393 3 543 117 l54 40 -38 39 c-21 21 -41
39 -46 39 -4 0 -35 -18 -69 -40 -89 -57 -160 -81 -259 -87 -164 -10 -295 41
-416 161 -106 106 -154 220 -154 366 0 251 169 463 420 526 129 33 301 2 412
-72 28 -19 51 -33 52 -32 1 2 17 23 35 47 l35 44 -35 29 c-116 97 -345 142
-525 103z"/>
<path d="M3370 4159 c-233 -35 -381 -182 -397 -394 -13 -176 73 -351 203 -413
186 -89 196 -98 202 -196 3 -46 0 -72 -13 -97 -27 -53 -55 -79 -87 -79 -42 0
-130 34 -183 70 -25 17 -52 30 -58 27 -7 -3 -21 -21 -32 -41 l-20 -37 25 -20
c197 -153 541 -156 709 -4 51 46 107 157 116 230 15 114 -33 253 -111 325 -53
49 -99 72 -197 99 -96 26 -121 42 -152 96 -21 34 -25 55 -25 116 0 87 21 141
69 182 47 39 141 38 240 -2 l72 -29 20 41 21 40 -23 19 c-34 26 -119 56 -191
68 -71 11 -109 11 -188 -1z m-85 -146 c-34 -81 -46 -142 -40 -198 17 -166 83
-241 253 -290 97 -27 132 -46 167 -87 47 -55 65 -106 65 -183 0 -148 -86 -245
-244 -276 -27 -5 -51 -7 -54 -5 -2 3 6 22 19 43 21 33 24 50 24 133 0 79 -4
102 -22 136 -31 58 -80 97 -161 128 -93 36 -151 88 -188 168 -24 54 -28 75
-28 148 1 126 41 203 141 269 53 35 79 40 68 14z"/>
<path d="M4540 4164 c0 -3 35 -65 79 -138 96 -160 244 -417 294 -509 l37 -68
0 -274 0 -275 60 0 60 0 0 273 0 273 34 64 c18 36 106 195 195 354 88 159 161
293 161 298 0 4 -31 8 -68 8 l-68 0 -106 -192 c-59 -106 -127 -235 -153 -285
-25 -51 -49 -93 -53 -93 -4 0 -45 69 -91 153 -45 85 -118 212 -160 283 l-77
129 -72 3 c-40 2 -72 0 -72 -4z"/>
</g>
</svg>
