<?xml version="1.0" encoding="UTF-8"?>
<!DOCTYPE svg PUBLIC "-//W3C//DTD SVG 1.1//EN" "http://www.w3.org/Graphics/SVG/1.1/DTD/svg11.dtd">
<svg xmlns="http://www.w3.org/2000/svg" version="1.1" width="491px" height="196px" style="shape-rendering:geometricPrecision; text-rendering:geometricPrecision; image-rendering:optimizeQuality; fill-rule:evenodd; clip-rule:evenodd" xmlns:xlink="http://www.w3.org/1999/xlink">
<g><path style="opacity:0.004" fill="#fefffe" d="M 434.5,-0.5 C 434.833,-0.5 435.167,-0.5 435.5,-0.5C 435.315,0.170143 434.981,0.170143 434.5,-0.5 Z"/></g>
<g><path style="opacity:0.004" fill="#fefffe" d="M 301.5,5.5 C 302.833,6.16667 302.833,6.16667 301.5,5.5 Z"/></g>
<g><path style="opacity:0.004" fill="#fefffe" d="M 58.5,7.5 C 59.8333,8.16667 59.8333,8.16667 58.5,7.5 Z"/></g>
<g><path style="opacity:0.004" fill="#fefffe" d="M 61.5,8.5 C 62.8333,9.16667 62.8333,9.16667 61.5,8.5 Z"/></g>
<g><path style="opacity:0.004" fill="#fefffe" d="M 15.5,10.5 C 16.8333,11.1667 16.8333,11.1667 15.5,10.5 Z"/></g>
<g><path style="opacity:0.004" fill="#fefffe" d="M 407.5,13.5 C 408.833,14.1667 408.833,14.1667 407.5,13.5 Z"/></g>
<g><path style="opacity:0.004" fill="#fefffe" d="M 453.5,16.5 C 454.833,17.1667 454.833,17.1667 453.5,16.5 Z"/></g>
<g><path style="opacity:0.004" fill="#fefffe" d="M 461.5,18.5 C 462.833,19.1667 462.833,19.1667 461.5,18.5 Z"/></g>
<g><path style="opacity:0.999" fill="#303030" d="M 100.5,119.5 C 100.5,123.833 100.5,128.167 100.5,132.5C 73.9947,132.169 47.6614,132.502 21.5,133.5C 20.3356,96.0022 20.1689,58.3356 21,20.5C 47.0945,19.339 73.2611,19.1723 99.5,20C 100.469,24.7367 100.803,29.57 100.5,34.5C 79.1667,34.5 57.8333,34.5 36.5,34.5C 36.5,46.1667 36.5,57.8333 36.5,69.5C 55.5,69.5 74.5,69.5 93.5,69.5C 93.5,74.1667 93.5,78.8333 93.5,83.5C 74.5,83.5 55.5,83.5 36.5,83.5C 36.5,95.5 36.5,107.5 36.5,119.5C 57.8333,119.5 79.1667,119.5 100.5,119.5 Z"/></g>
<g><path style="opacity:0.004" fill="#fefffe" d="M 400.5,24.5 C 401.833,25.1667 401.833,25.1667 400.5,24.5 Z"/></g>
<g><path style="opacity:0.991" fill="#313131" d="M 124.5,62.5 C 119.549,50.2662 114.882,37.9328 110.5,25.5C 124.167,25.5 137.833,25.5 151.5,25.5C 156.098,38.2894 161.098,50.9561 166.5,63.5C 164.032,70.4342 161.032,77.1009 157.5,83.5C 151.641,69.9239 145.974,56.2573 140.5,42.5C 138.235,41.3526 135.902,41.1859 133.5,42C 141.52,61.2094 149.687,80.3761 158,99.5C 167.833,75.1667 177.667,50.8333 187.5,26.5C 201.15,25.5008 214.817,25.1675 228.5,25.5C 215.28,60.1639 201.28,94.4972 186.5,128.5C 180.872,129.495 175.206,129.829 169.5,129.5C 180.799,100.065 192.799,70.8984 205.5,42C 201.537,40.7636 198.703,41.9302 197,45.5C 190.756,61.5913 184.422,77.2579 178,92.5C 173.443,104.613 168.61,116.613 163.5,128.5C 159.62,129.795 155.786,129.795 152,128.5C 143.057,106.296 133.89,84.2962 124.5,62.5 Z"/></g>
<g><path style="opacity:1" fill="#303030" d="M 430.5,27.5 C 435.833,27.5 441.167,27.5 446.5,27.5C 446.5,35.1667 446.5,42.8333 446.5,50.5C 455.167,50.5 463.833,50.5 472.5,50.5C 472.5,54.5 472.5,58.5 472.5,62.5C 463.833,62.5 455.167,62.5 446.5,62.5C 446.333,79.5033 446.5,96.5033 447,113.5C 448.333,117.592 451.167,119.925 455.5,120.5C 460.638,119.563 465.638,118.23 470.5,116.5C 471.671,120.492 472.505,124.492 473,128.5C 465.026,134.108 456.193,135.941 446.5,134C 438.045,131.592 432.879,126.092 431,117.5C 430.5,99.1697 430.333,80.8364 430.5,62.5C 426.5,62.5 422.5,62.5 418.5,62.5C 418.5,58.5 418.5,54.5 418.5,50.5C 422.5,50.5 426.5,50.5 430.5,50.5C 430.5,42.8333 430.5,35.1667 430.5,27.5 Z"/></g>
<g><path style="opacity:0.004" fill="#fefffe" d="M 262.5,31.5 C 263.833,32.1667 263.833,32.1667 262.5,31.5 Z"/></g>
<g><path style="opacity:0.004" fill="#fefffe" d="M 235.5,33.5 C 236.833,34.1667 236.833,34.1667 235.5,33.5 Z"/></g>
<g><path style="opacity:0.004" fill="#fefffe" d="M 450.5,33.5 C 451.833,34.1667 451.833,34.1667 450.5,33.5 Z"/></g>
<g><path style="opacity:0.004" fill="#fefffe" d="M 244.5,35.5 C 245.833,36.1667 245.833,36.1667 244.5,35.5 Z"/></g>
<g><path style="opacity:0.004" fill="#fefffe" d="M 450.5,38.5 C 451.833,39.1667 451.833,39.1667 450.5,38.5 Z"/></g>
<g><path style="opacity:0.004" fill="#fefffe" d="M 237.5,40.5 C 238.833,41.1667 238.833,41.1667 237.5,40.5 Z"/></g>
<g><path style="opacity:0.004" fill="#fefffe" d="M 350.5,43.5 C 351.833,44.1667 351.833,44.1667 350.5,43.5 Z"/></g>
<g><path style="opacity:0.004" fill="#fefffe" d="M 86.5,45.5 C 87.8333,46.1667 87.8333,46.1667 86.5,45.5 Z"/></g>
<g><path style="opacity:0.983" fill="#313131" d="M 329.5,47.5 C 334.5,47.5 339.5,47.5 344.5,47.5C 344.334,53.1764 344.501,58.8431 345,64.5C 351.955,52.4367 362.455,46.77 376.5,47.5C 394.631,47.1372 405.464,55.8038 409,73.5C 409.5,93.8306 409.667,114.164 409.5,134.5C 404.238,134.805 399.072,134.471 394,133.5C 393.667,115.167 393.333,96.8333 393,78.5C 389.824,67.5686 382.49,62.2353 371,62.5C 356.416,63.4149 347.749,71.0816 345,85.5C 344.5,101.83 344.333,118.163 344.5,134.5C 339.238,134.805 334.072,134.471 329,133.5C 328.176,104.761 328.342,76.0948 329.5,47.5 Z"/></g>
<g><path style="opacity:0.004" fill="#fefffe" d="M 248.5,51.5 C 249.833,52.1667 249.833,52.1667 248.5,51.5 Z"/></g>
<g><path style="opacity:0.004" fill="#fefffe" d="M 222.5,54.5 C 223.833,55.1667 223.833,55.1667 222.5,54.5 Z"/></g>
<g><path style="opacity:0.004" fill="#fefffe" d="M 247.5,54.5 C 248.833,55.1667 248.833,55.1667 247.5,54.5 Z"/></g>
<g><path style="opacity:0.004" fill="#fefffe" d="M 246.5,56.5 C 247.833,57.1667 247.833,57.1667 246.5,56.5 Z"/></g>
<g><path style="opacity:0.004" fill="#fefffe" d="M 124.5,62.5 C 123.833,63.1667 123.833,63.1667 124.5,62.5 Z"/></g>
<g><path style="opacity:0.004" fill="#fefffe" d="M 235.5,62.5 C 236.833,63.1667 236.833,63.1667 235.5,62.5 Z"/></g>
<g><path style="opacity:0.004" fill="#fefffe" d="M 145.5,63.5 C 146.833,64.1667 146.833,64.1667 145.5,63.5 Z"/></g>
<g><path style="opacity:0.004" fill="#fefffe" d="M 448.5,67.5 C 449.833,68.1667 449.833,68.1667 448.5,67.5 Z"/></g>
<g><path style="opacity:0.004" fill="#fefffe" d="M 488.5,75.5 C 489.833,76.1667 489.833,76.1667 488.5,75.5 Z"/></g>
<g><path style="opacity:1" fill="#313031" d="M 271.5,47.5 C 306.579,45.5798 322.912,62.2465 320.5,97.5C 298.167,97.5 275.833,97.5 253.5,97.5C 255.372,109.874 262.372,117.708 274.5,121C 286.927,122.645 297.927,119.478 307.5,111.5C 310.688,113.854 313.355,116.688 315.5,120C 300.706,134.253 283.372,138.253 263.5,132C 246.018,124.064 237.018,110.397 236.5,91C 237.885,67.9956 249.551,53.4956 271.5,47.5 Z M 274.5,60.5 C 287.582,58.6265 297.415,63.2932 304,74.5C 305.15,77.7679 305.984,81.1012 306.5,84.5C 288.497,84.6666 270.497,84.4999 252.5,84C 254.938,71.3999 262.272,63.5666 274.5,60.5 Z"/></g>
<g><path style="opacity:0.004" fill="#fefffe" d="M 455.5,77.5 C 456.833,78.1667 456.833,78.1667 455.5,77.5 Z"/></g>
<g><path style="opacity:0.004" fill="#fefffe" d="M 377.5,78.5 C 378.833,79.1667 378.833,79.1667 377.5,78.5 Z"/></g>
<g><path style="opacity:0.004" fill="#fefffe" d="M 417.5,81.5 C 418.833,82.1667 418.833,82.1667 417.5,81.5 Z"/></g>
<g><path style="opacity:0.004" fill="#fefffe" d="M 51.5,84.5 C 52.8333,85.1667 52.8333,85.1667 51.5,84.5 Z"/></g>
<g><path style="opacity:0.004" fill="#fefffe" d="M 428.5,88.5 C 429.833,89.1667 429.833,89.1667 428.5,88.5 Z"/></g>
<g><path style="opacity:0.004" fill="#fefffe" d="M 215.5,93.5 C 216.833,94.1667 216.833,94.1667 215.5,93.5 Z"/></g>
<g><path style="opacity:0.004" fill="#fefffe" d="M 221.5,93.5 C 222.833,94.1667 222.833,94.1667 221.5,93.5 Z"/></g>
<g><path style="opacity:0.004" fill="#fefffe" d="M 427.5,97.5 C 428.833,98.1667 428.833,98.1667 427.5,97.5 Z"/></g>
<g><path style="opacity:0.004" fill="#fefffe" d="M 465.5,99.5 C 466.833,100.167 466.833,100.167 465.5,99.5 Z"/></g>
<g><path style="opacity:0.004" fill="#fefffe" d="M 129.5,103.5 C 130.833,104.167 130.833,104.167 129.5,103.5 Z"/></g>
<g><path style="opacity:0.004" fill="#fefffe" d="M 140.5,111.5 C 141.833,112.167 141.833,112.167 140.5,111.5 Z"/></g>
<g><path style="opacity:0.004" fill="#fefffe" d="M 470.5,113.5 C 471.833,114.167 471.833,114.167 470.5,113.5 Z"/></g>
<g><path style="opacity:0.004" fill="#fefffe" d="M 128.5,122.5 C 129.833,123.167 129.833,123.167 128.5,122.5 Z"/></g>
<g><path style="opacity:0.004" fill="#fefffe" d="M 356.5,124.5 C 357.833,125.167 357.833,125.167 356.5,124.5 Z"/></g>
<g><path style="opacity:0.004" fill="#fefffe" d="M 376.5,124.5 C 377.833,125.167 377.833,125.167 376.5,124.5 Z"/></g>
<g><path style="opacity:0.004" fill="#fefffe" d="M 356.5,127.5 C 357.833,128.167 357.833,128.167 356.5,127.5 Z"/></g>
<g><path style="opacity:0.762" fill="#1e1e1e" d="M 100.5,119.5 C 101.117,119.611 101.617,119.944 102,120.5C 102.772,124.89 102.606,129.223 101.5,133.5C 74.6697,134.829 48.003,134.829 21.5,133.5C 47.6614,132.502 73.9947,132.169 100.5,132.5C 100.5,128.167 100.5,123.833 100.5,119.5 Z"/></g>
<g><path style="opacity:0.004" fill="#fefffe" d="M 148.5,133.5 C 149.833,134.167 149.833,134.167 148.5,133.5 Z"/></g>
<g><path style="opacity:0.004" fill="#fefffe" d="M 124.5,136.5 C 125.833,137.167 125.833,137.167 124.5,136.5 Z"/></g>
<g><path style="opacity:0.004" fill="#fefffe" d="M 227.5,136.5 C 228.833,137.167 228.833,137.167 227.5,136.5 Z"/></g>
<g><path style="opacity:0.004" fill="#fefffe" d="M 205.5,139.5 C 206.833,140.167 206.833,140.167 205.5,139.5 Z"/></g>
<g><path style="opacity:0.004" fill="#fefffe" d="M 362.5,140.5 C 363.833,141.167 363.833,141.167 362.5,140.5 Z"/></g>
<g><path style="opacity:0.004" fill="#fefffe" d="M 22.5,141.5 C 23.8333,142.167 23.8333,142.167 22.5,141.5 Z"/></g>
<g><path style="opacity:0.004" fill="#fefffe" d="M 58.5,142.5 C 59.8333,143.167 59.8333,143.167 58.5,142.5 Z"/></g>
<g><path style="opacity:0.004" fill="#fefffe" d="M 107.5,144.5 C 108.833,145.167 108.833,145.167 107.5,144.5 Z"/></g>
<g><path style="opacity:0.004" fill="#fefffe" d="M 177.5,144.5 C 178.833,145.167 178.833,145.167 177.5,144.5 Z"/></g>
<g><path style="opacity:0.004" fill="#fefffe" d="M 275.5,144.5 C 276.833,145.167 276.833,145.167 275.5,144.5 Z"/></g>
<g><path style="opacity:0.004" fill="#fefffe" d="M 285.5,144.5 C 286.833,145.167 286.833,145.167 285.5,144.5 Z"/></g>
<g><path style="opacity:0.004" fill="#fefffe" d="M 213.5,146.5 C 214.833,147.167 214.833,147.167 213.5,146.5 Z"/></g>
<g><path style="opacity:0.004" fill="#fefffe" d="M 274.5,148.5 C 275.833,149.167 275.833,149.167 274.5,148.5 Z"/></g>
<g><path style="opacity:0.004" fill="#fefffe" d="M 296.5,148.5 C 297.833,149.167 297.833,149.167 296.5,148.5 Z"/></g>
<g><path style="opacity:0.004" fill="#fefffe" d="M 64.5,149.5 C 65.8333,150.167 65.8333,150.167 64.5,149.5 Z"/></g>
<g><path style="opacity:0.004" fill="#fefffe" d="M 481.5,151.5 C 482.833,152.167 482.833,152.167 481.5,151.5 Z"/></g>
<g><path style="opacity:0.004" fill="#fefffe" d="M 146.5,153.5 C 147.833,154.167 147.833,154.167 146.5,153.5 Z"/></g>
<g><path style="opacity:0.82" fill="#282828" d="M 246.5,150.5 C 247.822,150.33 248.989,150.663 250,151.5C 252.667,156.167 255.333,160.833 258,165.5C 258.333,160.833 258.667,156.167 259,151.5C 260,150.167 261,150.167 262,151.5C 262.5,158.492 262.666,165.492 262.5,172.5C 260.856,172.714 259.356,172.38 258,171.5C 255.333,166.833 252.667,162.167 250,157.5C 249.501,162.489 249.334,167.489 249.5,172.5C 248.5,172.5 247.5,172.5 246.5,172.5C 246.5,165.167 246.5,157.833 246.5,150.5 Z"/></g>
<g><path style="opacity:0.004" fill="#fefffe" d="M 207.5,155.5 C 208.833,156.167 208.833,156.167 207.5,155.5 Z"/></g>
<g><path style="opacity:0.004" fill="#fefffe" d="M 402.5,155.5 C 403.833,156.167 403.833,156.167 402.5,155.5 Z"/></g>
<g><path style="opacity:0.004" fill="#fefffe" d="M 31.5,156.5 C 32.8333,157.167 32.8333,157.167 31.5,156.5 Z"/></g>
<g><path style="opacity:0.004" fill="#fefffe" d="M 434.5,157.5 C 435.833,158.167 435.833,158.167 434.5,157.5 Z"/></g>
<g><path style="opacity:0.004" fill="#fefffe" d="M 476.5,157.5 C 477.833,158.167 477.833,158.167 476.5,157.5 Z"/></g>
<g><path style="opacity:0.004" fill="#fefffe" d="M 309.5,158.5 C 310.833,159.167 310.833,159.167 309.5,158.5 Z"/></g>
<g><path style="opacity:0.004" fill="#fefffe" d="M 404.5,158.5 C 405.833,159.167 405.833,159.167 404.5,158.5 Z"/></g>
<g><path style="opacity:0.004" fill="#fefffe" d="M 474.5,159.5 C 475.833,160.167 475.833,160.167 474.5,159.5 Z"/></g>
<g><path style="opacity:0.936" fill="#262626" d="M 228.5,150.5 C 229.675,150.281 230.675,150.614 231.5,151.5C 233,154.5 234.5,157.5 236,160.5C 237.608,157.618 238.941,154.618 240,151.5C 241.011,150.663 242.178,150.33 243.5,150.5C 242.237,155.032 240.403,159.365 238,163.5C 237.502,166.482 237.335,169.482 237.5,172.5C 236.5,172.5 235.5,172.5 234.5,172.5C 234.664,169.813 234.497,167.146 234,164.5C 231.471,160.074 229.638,155.408 228.5,150.5 Z"/></g>
<g><path style="opacity:1" fill="#292a2a" d="M 272.5,150.5 C 276.122,149.924 279.122,150.924 281.5,153.5C 281.192,154.308 280.692,154.975 280,155.5C 275.423,152.311 272.09,153.311 270,158.5C 268.312,164.459 270.312,168.459 276,170.5C 277.667,169.5 279.333,168.5 281,167.5C 281.374,168.416 281.874,169.25 282.5,170C 277.548,174.622 272.714,174.455 268,169.5C 264.324,161.871 265.824,155.538 272.5,150.5 Z"/></g>
<g><path style="opacity:0.004" fill="#fefffe" d="M 396.5,163.5 C 397.833,164.167 397.833,164.167 396.5,163.5 Z"/></g>
<g><path style="opacity:0.004" fill="#fefffe" d="M 214.5,164.5 C 215.833,165.167 215.833,165.167 214.5,164.5 Z"/></g>
<g><path style="opacity:0.004" fill="#fefffe" d="M 344.5,164.5 C 345.833,165.167 345.833,165.167 344.5,164.5 Z"/></g>
<g><path style="opacity:0.004" fill="#fefffe" d="M 287.5,166.5 C 288.833,167.167 288.833,167.167 287.5,166.5 Z"/></g>
<g><path style="opacity:0.004" fill="#fefffe" d="M 161.5,167.5 C 162.833,168.167 162.833,168.167 161.5,167.5 Z"/></g>
<g><path style="opacity:0.676" fill="#262626" d="M 217.5,150.5 C 220.602,150.154 223.435,150.821 226,152.5C 226.563,153.725 226.23,154.725 225,155.5C 221.903,152.667 219.07,152.833 216.5,156C 216.759,157.261 217.426,158.261 218.5,159C 227.147,160.614 229.147,164.947 224.5,172C 219.771,174.363 215.771,173.529 212.5,169.5C 212.808,168.692 213.308,168.025 214,167.5C 217.929,171.253 221.429,171.086 224.5,167C 221.302,164.144 217.802,161.644 214,159.5C 212.665,155.392 213.832,152.392 217.5,150.5 Z"/></g>
<g><path style="opacity:0.004" fill="#fefffe" d="M 409.5,169.5 C 410.833,170.167 410.833,170.167 409.5,169.5 Z"/></g>
<g><path style="opacity:0.004" fill="#fefffe" d="M 396.5,171.5 C 397.833,172.167 397.833,172.167 396.5,171.5 Z"/></g>
<g><path style="opacity:0.004" fill="#fefffe" d="M 437.5,174.5 C 438.833,175.167 438.833,175.167 437.5,174.5 Z"/></g>
<g><path style="opacity:0.004" fill="#fefffe" d="M 231.5,178.5 C 232.833,179.167 232.833,179.167 231.5,178.5 Z"/></g>
<g><path style="opacity:0.004" fill="#fefffe" d="M 249.5,183.5 C 250.833,184.167 250.833,184.167 249.5,183.5 Z"/></g>
<g><path style="opacity:0.004" fill="#fefffe" d="M 117.5,186.5 C 118.833,187.167 118.833,187.167 117.5,186.5 Z"/></g>
<g><path style="opacity:0.004" fill="#fefffe" d="M 443.5,187.5 C 444.833,188.167 444.833,188.167 443.5,187.5 Z"/></g>
<g><path style="opacity:0.004" fill="#00fffe" d="M 124.5,189.5 C 125.833,190.167 125.833,190.167 124.5,189.5 Z"/></g>
<g><path style="opacity:0.004" fill="#fefffe" d="M 476.5,189.5 C 477.833,190.167 477.833,190.167 476.5,189.5 Z"/></g>
<g><path style="opacity:0.004" fill="#fefffe" d="M 209.5,190.5 C 210.833,191.167 210.833,191.167 209.5,190.5 Z"/></g>
<g><path style="opacity:0.004" fill="#fefffe" d="M 193.5,195.5 C 192.833,194.167 192.833,194.167 193.5,195.5 Z"/></g>
<g><path style="opacity:0.004" fill="#fefffe" d="M 342.5,195.5 C 341.833,194.167 341.833,194.167 342.5,195.5 Z"/></g>
</svg>
